<svg width="80" height="80" viewBox="0 0 80 80" fill="none" xmlns="http://www.w3.org/2000/svg">
<g clip-path="url(#clip0_397_1767)">
<path d="M40 0C17.91 0 0 17.91 0 40C0 62.0933 17.91 80 40 80C62.0933 80 80 62.0933 80 40C80 17.91 62.0933 0 40 0ZM58.3433 57.6933C57.6233 58.8733 56.09 59.24 54.9167 58.5233C45.5233 52.7833 33.7 51.4867 19.7767 54.6667C18.4333 54.9733 17.0967 54.1333 16.79 52.7933C16.4833 51.4533 17.32 50.1133 18.6667 49.81C33.9033 46.3267 46.9733 47.8267 57.5167 54.27C58.6933 54.9833 59.0633 56.52 58.3433 57.6933ZM63.24 46.8033C62.3367 48.27 60.4167 48.73 58.95 47.83C48.2 41.2233 31.81 39.3067 19.09 43.17C17.4433 43.6667 15.7 42.7367 15.2 41.09C14.7033 39.44 15.6333 37.7033 17.28 37.2C31.8067 32.79 49.8667 34.9267 62.2133 42.5133C63.68 43.4167 64.14 45.3367 63.24 46.8033ZM63.66 35.46C50.7667 27.8033 29.5 27.1 17.19 30.8367C15.2133 31.4367 13.1233 30.32 12.5233 28.3433C11.9233 26.3667 13.04 24.2767 15.0167 23.6767C29.1467 19.3867 52.6333 20.2167 67.4767 29.0267C69.2533 30.0833 69.8367 32.3767 68.7833 34.1533C67.7333 35.93 65.4333 36.5167 63.66 35.46Z" fill="#00C24A"/>
</g>
<defs>
<clipPath id="clip0_397_1767">
<rect width="80" height="80" fill="white"/>
</clipPath>
</defs>
</svg>
