<svg width="25" height="22" viewBox="0 0 25 22" fill="none" xmlns="http://www.w3.org/2000/svg">
<path d="M21.4862 12.9032C21.0253 12.4424 20.2189 12.4424 19.7581 12.9032C19.2972 13.364 19.2972 14.1705 19.7581 14.6313L20.8525 15.7258H15.4378C14.5737 15.7258 13.8825 15.265 13.1336 14.3433C12.7304 13.8249 11.9816 13.7097 11.4055 14.1129C10.8871 14.5161 10.7719 15.265 11.1751 15.841C12.3848 17.4539 13.7673 18.2028 15.3802 18.2028H20.7949L19.7005 19.2972C19.2396 19.7581 19.2396 20.5645 19.7005 21.0253C19.9309 21.2557 20.2765 21.371 20.5645 21.371C20.8525 21.371 21.1982 21.2557 21.4286 21.0253L24.5968 17.8571C25.0576 17.3963 25.0576 16.5899 24.5968 16.129L21.4862 12.9032ZM15.4378 5.58755H20.8525L19.7581 6.68202C19.2972 7.14285 19.2972 7.9493 19.7581 8.41013C19.9885 8.64055 20.3341 8.75576 20.6221 8.75576C20.9101 8.75576 21.2558 8.64055 21.4862 8.41013L24.6544 5.24193C25.1152 4.7811 25.1152 3.97465 24.6544 3.51382L21.4862 0.345622C21.0253 -0.115207 20.2189 -0.115207 19.7581 0.345622C19.2972 0.806451 19.2972 1.6129 19.7581 2.07373L20.8525 3.1682H15.4378C11.8664 3.1682 10.1959 6.85484 8.69816 10.1382C7.43088 13.0184 6.16359 15.6682 4.20507 15.6682H1.20968C0.518433 15.6682 0 16.1866 0 16.8779C0 17.5691 0.518433 18.1452 1.20968 18.1452H4.20507C7.7765 18.1452 9.447 14.4585 10.9447 11.1751C12.212 8.29493 13.4217 5.58755 15.4378 5.58755ZM1.20968 5.58755H4.20507C5.06912 5.58755 5.76037 5.99078 6.45161 6.91244C6.68203 7.20046 7.02765 7.37327 7.43087 7.37327C7.71889 7.37327 7.94931 7.31566 8.17972 7.14285C8.69816 6.73963 8.81336 5.99078 8.41014 5.41474C7.20046 3.91705 5.81797 3.1106 4.20507 3.1106H1.20968C0.518433 3.1682 0 3.68663 0 4.37788C0 5.06912 0.518433 5.58755 1.20968 5.58755Z" fill="#717171"/>
</svg>
