<svg width="17" height="22" viewBox="0 0 17 22" fill="none" xmlns="http://www.w3.org/2000/svg">
<path d="M11.4275 1.375C11.4272 1.73955 11.2821 2.08905 11.0242 2.34666L3.99149 9.37933C3.77863 9.59214 3.60977 9.8448 3.49456 10.1229C3.37936 10.401 3.32006 10.699 3.32006 11C3.32006 11.301 3.37936 11.599 3.49456 11.8771C3.60977 12.1552 3.77863 12.4079 3.99149 12.6207L11.015 19.6487C11.2655 19.9081 11.404 20.2554 11.4009 20.6159C11.3978 20.9764 11.2532 21.3213 10.9982 21.5762C10.7433 21.8312 10.3984 21.9758 10.0379 21.9789C9.6774 21.9821 9.33007 21.8435 9.07074 21.593L2.04724 14.5704C1.10286 13.6242 0.572467 12.3419 0.572467 11.005C0.572467 9.66816 1.10286 8.3859 2.04724 7.43966L9.07991 0.406996C9.27193 0.214848 9.51657 0.0838814 9.78295 0.0306282C10.0493 -0.0226231 10.3255 0.00421906 10.5767 0.107775C10.8278 0.211329 11.0426 0.386953 11.1941 0.612484C11.3455 0.838015 11.4267 1.10335 11.4275 1.375Z" fill="white"/>
</svg>
