<svg width="12" height="12" viewBox="0 0 12 12" fill="none" xmlns="http://www.w3.org/2000/svg">
<path d="M8.96045 0.749991C8.96027 0.948836 8.88114 1.13947 8.74045 1.27999L4.90445 5.11599C4.78834 5.23207 4.69624 5.36988 4.6334 5.52156C4.57056 5.67324 4.53822 5.83581 4.53822 5.99999C4.53822 6.16417 4.57056 6.32674 4.6334 6.47842C4.69624 6.6301 4.78834 6.76791 4.90445 6.88399L8.73545 10.7175C8.87207 10.8589 8.94766 11.0484 8.94595 11.245C8.94425 11.4417 8.86537 11.6298 8.72631 11.7689C8.58726 11.9079 8.39915 11.9868 8.2025 11.9885C8.00585 11.9902 7.8164 11.9146 7.67495 11.778L3.84395 7.94749C3.32883 7.43136 3.03953 6.73194 3.03953 6.00274C3.03953 5.27354 3.32883 4.57412 3.84395 4.05799L7.67995 0.221992C7.78469 0.117183 7.91813 0.0457478 8.06343 0.0167007C8.20872 -0.0123463 8.35937 0.00229549 8.49635 0.0587797C8.63334 0.115264 8.75052 0.211059 8.83312 0.334076C8.91572 0.457093 8.96002 0.601819 8.96045 0.749991Z" fill="#717171"/>
</svg>
