<svg width="18" height="16" viewBox="0 0 18 16" fill="none" xmlns="http://www.w3.org/2000/svg">
<path d="M17.3186 10.9233L11.2541 1.19676C10.7437 0.449738 9.89562 0 9.00246 0C8.10931 0 7.26118 0.442115 6.72829 1.21963L0.69387 10.9081C-0.0716916 12.021 -0.214296 13.3549 0.318595 14.384C0.84398 15.4131 1.94729 16 3.3283 16H14.6766C16.0651 16 17.1609 15.4131 17.6863 14.384C18.2117 13.3549 18.0691 12.0286 17.3186 10.9233ZM8.25191 4.57361C8.25191 4.15436 8.58966 3.81134 9.00246 3.81134C9.41526 3.81134 9.75301 4.15436 9.75301 4.57361V9.14721C9.75301 9.56646 9.41526 9.90948 9.00246 9.90948C8.58966 9.90948 8.25191 9.56646 8.25191 9.14721V4.57361ZM9.00246 13.7208C8.3795 13.7208 7.87664 13.2101 7.87664 12.5774C7.87664 11.9447 8.3795 11.434 9.00246 11.434C9.62542 11.434 10.1283 11.9447 10.1283 12.5774C10.1283 13.2101 9.62542 13.7208 9.00246 13.7208Z" fill="#FFA800"/>
</svg>
