<svg width="34" height="34" viewBox="0 0 34 34" fill="none" xmlns="http://www.w3.org/2000/svg">
<g clip-path="url(#clip0_415_1375)">
<path d="M11.7484 15.7547L0 27.5032V34H31.9968L13.7516 15.7547C13.4859 15.4892 13.1256 15.34 12.75 15.34C12.3744 15.34 12.0141 15.4892 11.7484 15.7547Z" fill="#D9D9D9"/>
<path d="M15.7547 13.7516L34 31.9968V4.25C34 3.12283 33.5522 2.04183 32.7552 1.2448C31.9582 0.447767 30.8772 0 29.75 0L4.25 0C3.12283 0 2.04183 0.447767 1.2448 1.2448C0.447767 2.04183 0 3.12283 0 4.25L0 23.4968L9.74525 13.7516C10.5422 12.9548 11.6231 12.5072 12.75 12.5072C13.8769 12.5072 14.9578 12.9548 15.7547 13.7516ZM25.5 2.83333C26.6208 2.83333 27.7164 3.16568 28.6482 3.78834C29.5801 4.411 30.3064 5.29601 30.7353 6.33146C31.1642 7.36691 31.2764 8.50629 31.0578 9.60551C30.8391 10.7047 30.2994 11.7144 29.5069 12.5069C28.7144 13.2994 27.7047 13.8391 26.6055 14.0578C25.5063 14.2764 24.3669 14.1642 23.3315 13.7353C22.296 13.3064 21.411 12.5801 20.7883 11.6482C20.1657 10.7164 19.8333 9.62076 19.8333 8.5C19.8333 6.99711 20.4304 5.55577 21.4931 4.49306C22.5558 3.43036 23.9971 2.83333 25.5 2.83333Z" fill="#D9D9D9"/>
<path d="M25.5 11.3334C27.0648 11.3334 28.3334 10.0648 28.3334 8.50002C28.3334 6.93521 27.0648 5.66669 25.5 5.66669C23.9352 5.66669 22.6667 6.93521 22.6667 8.50002C22.6667 10.0648 23.9352 11.3334 25.5 11.3334Z" fill="#D9D9D9"/>
</g>
<defs>
<clipPath id="clip0_415_1375">
<rect width="34" height="34" fill="white"/>
</clipPath>
</defs>
</svg>
