<svg width="12" height="7" viewBox="0 0 12 7" fill="none" xmlns="http://www.w3.org/2000/svg">
<path d="M1.10083 0.5L10.4108 0.5C10.5756 0.500035 10.7367 0.548928 10.8737 0.640498C11.0107 0.732069 11.1175 0.862205 11.1806 1.01445C11.2436 1.1667 11.2601 1.33423 11.228 1.49586C11.1958 1.65749 11.1165 1.80596 11 1.9225L6.345 6.5775C6.18873 6.73373 5.9768 6.82149 5.75583 6.82149C5.53486 6.82149 5.32294 6.73373 5.16667 6.5775L0.511665 1.9225C0.395157 1.80596 0.31582 1.65749 0.28368 1.49586C0.25154 1.33423 0.268043 1.1667 0.331101 1.01445C0.39416 0.862205 0.500943 0.732069 0.637951 0.640498C0.774959 0.548928 0.93604 0.500035 1.10083 0.5Z" fill="#3C3C3C"/>
</svg>
