<svg width="28" height="28" viewBox="0 0 28 28" fill="none" xmlns="http://www.w3.org/2000/svg">
<g clip-path="url(#clip0_2_20)">
<path d="M20.4167 1.06982C19.1029 1.09026 17.8179 1.45699 16.6912 2.13297C15.5646 2.80896 14.6363 3.77027 14 4.91982C13.3637 3.77027 12.4354 2.80896 11.3088 2.13297C10.1821 1.45699 8.89706 1.09026 7.58334 1.06982C5.4891 1.16081 3.51599 2.07695 2.09508 3.6181C0.674172 5.15924 -0.0790401 7.2001 2.20165e-06 9.29482C2.20165e-06 17.199 12.782 26.3282 13.3257 26.7155L14 27.1927L14.6743 26.7155C15.218 26.3305 28 17.199 28 9.29482C28.079 7.2001 27.3258 5.15924 25.9049 3.6181C24.484 2.07695 22.5109 1.16081 20.4167 1.06982Z" fill="#EB6440"/>
</g>
<defs>
<clipPath id="clip0_2_20">
<rect width="28" height="28" fill="white"/>
</clipPath>
</defs>
</svg>
