<svg width="22" height="22" viewBox="0 0 22 22" fill="none" xmlns="http://www.w3.org/2000/svg">
<g clip-path="url(#clip0_17_49)">
<path d="M16.0417 0.840576C15.0095 0.856632 13.9998 1.14478 13.1146 1.67591C12.2294 2.20704 11.5 2.96236 11 3.86558C10.5001 2.96236 9.77073 2.20704 8.88551 1.67591C8.00029 1.14478 6.99059 0.856632 5.95838 0.840576C4.31291 0.912068 2.76261 1.63189 1.64618 2.84279C0.529748 4.05369 -0.0620615 5.65722 4.31472e-05 7.30308C4.31472e-05 13.5135 10.043 20.6864 10.4702 20.9907L11 21.3657L11.5299 20.9907C11.957 20.6882 22 13.5135 22 7.30308C22.0621 5.65722 21.4703 4.05369 20.3539 2.84279C19.2375 1.63189 17.6872 0.912068 16.0417 0.840576ZM11 19.1088C8.01813 16.8813 1.83338 11.4088 1.83338 7.30308C1.77071 6.14323 2.16921 5.00566 2.94196 4.13847C3.71471 3.27127 4.79901 2.74481 5.95838 2.67391C7.11775 2.74481 8.20205 3.27127 8.97479 4.13847C9.74754 5.00566 10.146 6.14323 10.0834 7.30308H11.9167C11.854 6.14323 12.2525 5.00566 13.0253 4.13847C13.798 3.27127 14.8823 2.74481 16.0417 2.67391C17.2011 2.74481 18.2854 3.27127 19.0581 4.13847C19.8309 5.00566 20.2294 6.14323 20.1667 7.30308C20.1667 11.4107 13.982 16.8813 11 19.1088Z" fill="#717171"/>
</g>
<defs>
<clipPath id="clip0_17_49">
<rect width="22" height="22" fill="white"/>
</clipPath>
</defs>
</svg>
