<svg width="22" height="22" viewBox="0 0 22 22" fill="none" xmlns="http://www.w3.org/2000/svg">
<g clip-path="url(#clip0_606_1244)">
<path d="M16.0417 0.840576C15.0095 0.856632 13.9998 1.14478 13.1146 1.67591C12.2294 2.20704 11.5 2.96236 11 3.86558C10.5001 2.96236 9.77073 2.20704 8.88551 1.67591C8.00029 1.14478 6.99059 0.856632 5.95838 0.840576C4.31291 0.912068 2.76261 1.63189 1.64618 2.84279C0.529748 4.05369 -0.0620615 5.65722 4.31471e-05 7.30308C4.31471e-05 13.5135 10.043 20.6864 10.4702 20.9907L11 21.3657L11.5299 20.9907C11.957 20.6882 22 13.5135 22 7.30308C22.0621 5.65722 21.4703 4.05369 20.3539 2.84279C19.2375 1.63189 17.6872 0.912068 16.0417 0.840576Z" fill="#717171"/>
</g>
<defs>
<clipPath id="clip0_606_1244">
<rect width="22" height="22" fill="white"/>
</clipPath>
</defs>
</svg>
