<svg width="35" height="35" viewBox="0 0 35 35" fill="none" xmlns="http://www.w3.org/2000/svg">
<g clip-path="url(#clip0_15_211)">
<path d="M25.5208 1.33728C23.8787 1.36282 22.2723 1.82123 20.864 2.66622C19.4557 3.5112 18.2953 4.71284 17.5 6.14978C16.7047 4.71284 15.5443 3.5112 14.136 2.66622C12.7276 1.82123 11.1213 1.36282 9.47915 1.33728C6.86135 1.45102 4.39497 2.59619 2.61883 4.52262C0.842692 6.44904 -0.098823 9.00013 -2.01352e-05 11.6185C-2.01352e-05 21.4987 15.9775 32.9102 16.6571 33.3944L17.5 33.9908L18.3429 33.3944C19.0225 32.9131 35 21.4987 35 11.6185C35.0988 9.00013 34.1573 6.44904 32.3811 4.52262C30.605 2.59619 28.1386 1.45102 25.5208 1.33728ZM17.5 30.4004C12.756 26.8567 2.91665 18.1504 2.91665 11.6185C2.81696 9.77332 3.45093 7.96355 4.6803 6.58393C5.90967 5.2043 7.6347 4.36675 9.47915 4.25395C11.3236 4.36675 13.0486 5.2043 14.278 6.58393C15.5074 7.96355 16.1413 9.77332 16.0416 11.6185H18.9583C18.8586 9.77332 19.4926 7.96355 20.722 6.58393C21.9513 5.2043 23.6764 4.36675 25.5208 4.25395C27.3653 4.36675 29.0903 5.2043 30.3197 6.58393C31.549 7.96355 32.183 9.77332 32.0833 11.6185C32.0833 18.1533 22.2439 26.8567 17.5 30.4004Z" fill="#ECECEC"/>
</g>
<defs>
<clipPath id="clip0_15_211">
<rect width="35" height="35" fill="white"/>
</clipPath>
</defs>
</svg>
