<svg width="35" height="35" viewBox="0 0 35 35" fill="none" xmlns="http://www.w3.org/2000/svg">
<g clip-path="url(#clip0_11_106)">
<path d="M25.5208 1.3373C23.8787 1.36284 22.2723 1.82125 20.864 2.66623C19.4557 3.51122 18.2953 4.71285 17.5 6.1498C16.7047 4.71285 15.5443 3.51122 14.136 2.66623C12.7277 1.82125 11.1213 1.36284 9.47916 1.3373C6.86137 1.45103 4.39498 2.59621 2.61885 4.52263C0.842707 6.44906 -0.0988078 9.00014 -4.87641e-06 11.6185C-4.87641e-06 21.4988 15.9775 32.9102 16.6571 33.3944L17.5 33.9908L18.3429 33.3944C19.0225 32.9131 35 21.4988 35 11.6185C35.0988 9.00014 34.1573 6.44906 32.3811 4.52263C30.605 2.59621 28.1386 1.45103 25.5208 1.3373ZM17.5 30.4004C12.756 26.8567 2.91666 18.1504 2.91666 11.6185C2.81697 9.77334 3.45095 7.96357 4.68032 6.58394C5.90969 5.20431 7.63471 4.36676 9.47916 4.25396C11.3236 4.36676 13.0486 5.20431 14.278 6.58394C15.5074 7.96357 16.1414 9.77334 16.0417 11.6185H18.9583C18.8586 9.77334 19.4926 7.96357 20.722 6.58394C21.9514 5.20431 23.6764 4.36676 25.5208 4.25396C27.3653 4.36676 29.0903 5.20431 30.3197 6.58394C31.549 7.96357 32.183 9.77334 32.0833 11.6185C32.0833 18.1533 22.244 26.8567 17.5 30.4004Z" fill="#EB6440"/>
</g>
<defs>
<clipPath id="clip0_11_106">
<rect width="35" height="35" fill="white"/>
</clipPath>
</defs>
</svg>
