<svg width="25" height="25" viewBox="0 0 25 25" fill="none" xmlns="http://www.w3.org/2000/svg">
<g clip-path="url(#clip0_6_23)">
<path d="M22.4136 15.1729C23.8518 15.1729 25.0177 14.007 25.0177 12.5688C25.0177 11.1305 23.8518 9.96458 22.4136 9.96458C20.9753 9.96458 19.8094 11.1305 19.8094 12.5688C19.8094 14.007 20.9753 15.1729 22.4136 15.1729Z" fill="#497174"/>
<path d="M12.5 15.1042C13.9383 15.1042 15.1042 13.9382 15.1042 12.5C15.1042 11.0618 13.9383 9.89583 12.5 9.89583C11.0618 9.89583 9.89584 11.0618 9.89584 12.5C9.89584 13.9382 11.0618 15.1042 12.5 15.1042Z" fill="#497174"/>
<path d="M2.60417 15.1042C4.04241 15.1042 5.20833 13.9382 5.20833 12.5C5.20833 11.0618 4.04241 9.89583 2.60417 9.89583C1.16593 9.89583 0 11.0618 0 12.5C0 13.9382 1.16593 15.1042 2.60417 15.1042Z" fill="#497174"/>
</g>
<defs>
<clipPath id="clip0_6_23">
<rect width="25" height="25" fill="white"/>
</clipPath>
</defs>
</svg>
