<svg width="50" height="50" viewBox="0 0 50 50" fill="none" xmlns="http://www.w3.org/2000/svg">
<rect width="50" height="50" rx="25" fill="#EB6440"/>
<g clip-path="url(#clip0_6_149)">
<path d="M19.0417 12C18.0361 12 17.0716 12.3995 16.3606 13.1106C15.6495 13.8216 15.25 14.7861 15.25 15.7917V34.2083C15.25 35.2139 15.6495 36.1784 16.3606 36.8894C17.0716 37.6005 18.0361 38 19.0417 38C20.0473 38 21.0117 37.6005 21.7228 36.8894C22.4339 36.1784 22.8333 35.2139 22.8333 34.2083V15.7917C22.8333 14.7861 22.4339 13.8216 21.7228 13.1106C21.0117 12.3995 20.0473 12 19.0417 12Z" fill="#F6F6F6"/>
<path d="M30.9584 12C29.9527 12 28.9883 12.3995 28.2772 13.1106C27.5662 13.8216 27.1667 14.7861 27.1667 15.7917V34.2083C27.1667 35.2139 27.5662 36.1784 28.2772 36.8894C28.9883 37.6005 29.9527 38 30.9584 38C31.964 38 32.9284 37.6005 33.6395 36.8894C34.3505 36.1784 34.75 35.2139 34.75 34.2083V15.7917C34.75 14.7861 34.3505 13.8216 33.6395 13.1106C32.9284 12.3995 31.964 12 30.9584 12Z" fill="#F6F6F6"/>
</g>
<defs>
<clipPath id="clip0_6_149">
<rect width="26" height="26" fill="white" transform="translate(12 12)"/>
</clipPath>
</defs>
</svg>
