<svg width="15" height="19" viewBox="0 0 15 19" fill="none" xmlns="http://www.w3.org/2000/svg">
<path d="M13.4321 6.11242L6.10788 0.741725C5.53582 0.322824 4.85893 0.0705129 4.15224 0.0127596C3.44556 -0.0449938 2.73668 0.0940663 2.10419 0.414526C1.4717 0.734985 0.940304 1.22433 0.568898 1.82831C0.197491 2.43229 0.000584487 3.12732 4.63342e-06 3.83636V14.5831C-0.00109845 15.2929 0.194778 15.989 0.565831 16.594C0.936885 17.199 1.46856 17.6892 2.10167 18.01C2.73477 18.3307 3.44448 18.4695 4.15179 18.4109C4.8591 18.3522 5.53625 18.0984 6.10788 17.6778L13.4321 12.3071C13.9181 11.9504 14.3133 11.4843 14.5857 10.9466C14.8581 10.4088 15 9.81448 15 9.21166C15 8.60885 14.8581 8.0145 14.5857 7.47674C14.3133 6.93898 13.9181 6.47291 13.4321 6.11626V6.11242Z" fill="#EB6440"/>
</svg>
