<svg width="70" height="70" viewBox="0 0 70 70" fill="none" xmlns="http://www.w3.org/2000/svg">
<rect width="70" height="70" rx="35" fill="#EB6440"/>
<path d="M48.9294 28.8725L34.4635 18.265C33.3336 17.4376 31.9967 16.9393 30.6009 16.8252C29.2052 16.7111 27.8051 16.9858 26.5559 17.6187C25.3066 18.2516 24.2571 19.2181 23.5235 20.4111C22.79 21.604 22.4011 22.9767 22.3999 24.3771V45.6029C22.3977 47.0047 22.7846 48.3795 23.5175 49.5745C24.2503 50.7695 25.3004 51.7376 26.5509 52.3711C27.8013 53.0047 29.203 53.2788 30.6 53.163C31.997 53.0471 33.3345 52.5459 34.4635 51.715L48.9294 41.1075C49.8893 40.4031 50.6698 39.4825 51.2078 38.4204C51.7458 37.3583 52.0262 36.1844 52.0262 34.9938C52.0262 33.8032 51.7458 32.6293 51.2078 31.5672C50.6698 30.505 49.8893 29.5845 48.9294 28.8801V28.8725Z" fill="#F6F6F6"/>
</svg>
