<svg width="21" height="20" viewBox="0 0 21 20" fill="none" xmlns="http://www.w3.org/2000/svg">
<g clip-path="url(#clip0_2_31)">
<path d="M19.6914 8.75H11.8398V1.25C11.8398 0.559648 11.254 0 10.5312 0C9.80854 0 9.22266 0.559648 9.22266 1.25V8.75H1.37109C0.648382 8.75 0.0625 9.30965 0.0625 10C0.0625 10.6904 0.648382 11.25 1.37109 11.25H9.22266V18.75C9.22266 19.4404 9.80854 20 10.5312 20C11.254 20 11.8398 19.4404 11.8398 18.75V11.25H19.6914C20.4141 11.25 21 10.6904 21 10C21 9.30965 20.4141 8.75 19.6914 8.75Z" fill="#497174"/>
</g>
<defs>
<clipPath id="clip0_2_31">
<rect width="20.9375" height="20" fill="white" transform="translate(0.0625)"/>
</clipPath>
</defs>
</svg>
