<svg width="36" height="36" viewBox="0 0 36 36" fill="none" xmlns="http://www.w3.org/2000/svg">
<path d="M30.3574 25.1706L30.3574 10.8156C30.3574 7.8756 27.1624 6.0306 24.6124 7.5006L18.3875 11.0856L12.1625 14.6856C9.61245 16.1556 9.61245 19.8306 12.1625 21.3006L18.3875 24.9006L24.6124 28.4856C27.1624 29.9556 30.3574 28.1256 30.3574 25.1706Z" fill="#717171"/>
<path d="M5.64258 7.60455C6.25758 7.60455 6.76758 8.11455 6.76758 8.72955L6.76758 27.2695C6.76758 27.8845 6.25758 28.3945 5.64258 28.3945C5.02758 28.3945 4.51758 27.8845 4.51758 27.2695L4.51758 8.72955C4.51758 8.11455 5.01258 7.60455 5.64258 7.60455Z" fill="#717171"/>
</svg>
