<svg width="23" height="23" viewBox="0 0 23 23" fill="none" xmlns="http://www.w3.org/2000/svg">
<g clip-path="url(#clip0_6_158)">
<path d="M-4.56751e-06 11.0209C-4.56751e-06 6.52915 3.65412 2.87503 8.14583 2.87503H18.2083V1.28132C18.2083 0.427443 19.2405 2.58684e-05 19.8442 0.603776L22.7192 3.63499C23.0939 4.00969 23.093 4.61632 22.7192 4.99007L19.8442 8.02128C19.2405 8.62503 18.2083 8.19761 18.2083 7.34374V5.75003H8.14583C5.2392 5.75003 2.875 8.1152 2.875 11.0209C2.875 11.8144 2.23195 12.4584 1.4375 12.4584C0.643037 12.4584 -4.56751e-06 11.8144 -4.56751e-06 11.0209ZM21.5625 10.5417C20.768 10.5417 20.125 11.1857 20.125 11.9792C20.125 14.8849 17.7608 17.25 14.8542 17.25H4.79166V15.6563C4.79166 14.8024 3.75954 14.375 3.15579 14.9788L0.280787 18.01C-0.0939212 18.3847 -0.0939212 18.9913 0.280787 19.3651L3.15579 22.3963C3.75954 23 4.79166 22.5726 4.79166 21.7187V20.125H14.8542C19.3459 20.125 23 16.4709 23 11.9792C23 11.1857 22.357 10.5417 21.5625 10.5417Z" fill="#EB6440"/>
</g>
<defs>
<clipPath id="clip0_6_158">
<rect width="23" height="23" fill="white"/>
</clipPath>
</defs>
</svg>
