<svg width="23" height="23" viewBox="0 0 23 23" fill="none" xmlns="http://www.w3.org/2000/svg">
<g clip-path="url(#clip0_635_841)">
<path d="M0.000239573 11.0208C0.000239573 6.52909 3.65436 2.87497 8.14607 2.87497H18.2086V1.28126C18.2086 0.427382 19.2407 -3.51667e-05 19.8444 0.603715L22.7194 3.63492C23.0942 4.00963 23.0932 4.61626 22.7194 4.99001L19.8444 8.02122C19.2407 8.62497 18.2086 8.19755 18.2086 7.34368V5.74997H8.14607C5.23945 5.74997 2.87524 8.11513 2.87524 11.0208C2.87524 11.8143 2.2322 12.4583 1.43774 12.4583C0.643281 12.4583 0.000239573 11.8143 0.000239573 11.0208ZM21.5627 10.5416C20.7683 10.5416 20.1252 11.1856 20.1252 11.9791C20.1252 14.8848 17.761 17.25 14.8544 17.25H4.79191V15.6563C4.79191 14.8024 3.75978 14.375 3.15603 14.9787L0.281031 18.0099C-0.0936771 18.3846 -0.0936771 18.9913 0.281031 19.365L3.15603 22.3962C3.75978 23 4.79191 22.5726 4.79191 21.7187V20.125H14.8544C19.3461 20.125 23.0002 16.4708 23.0002 11.9791C23.0002 11.1856 22.3572 10.5416 21.5627 10.5416Z" fill="#717171"/>
</g>
<defs>
<clipPath id="clip0_635_841">
<rect width="23" height="23" fill="white"/>
</clipPath>
</defs>
</svg>
