<svg width="17" height="17" viewBox="0 0 17 17" fill="none" xmlns="http://www.w3.org/2000/svg">
<g clip-path="url(#clip0_2_42)">
<path d="M16.6884 15.1904L13.398 11.8987C15.86 8.60861 15.1887 3.94566 11.8987 1.48369C8.60861 -0.978282 3.94566 -0.306983 1.48369 2.98307C-0.978282 6.27311 -0.306983 10.9361 2.98307 13.398C5.62591 15.3757 9.25579 15.3757 11.8987 13.398L15.1904 16.6897C15.604 17.1034 16.2747 17.1034 16.6883 16.6897C17.102 16.2761 17.102 15.6054 16.6883 15.1918L16.6884 15.1904ZM7.4683 12.7627C4.54426 12.7627 2.17388 10.3923 2.17388 7.46829C2.17388 4.54426 4.54426 2.17388 7.4683 2.17388C10.3923 2.17388 12.7627 4.54426 12.7627 7.46829C12.7596 10.391 10.391 12.7596 7.4683 12.7627Z" fill="#3C3C3C"/>
</g>
<defs>
<clipPath id="clip0_2_42">
<rect width="17" height="17" fill="white"/>
</clipPath>
</defs>
</svg>
