<svg width="12" height="12" viewBox="0 0 12 12" fill="none" xmlns="http://www.w3.org/2000/svg">
<g clip-path="url(#clip0_6_38)">
<path d="M0.000262925 5.99297C-0.00484018 7.27516 1.03046 8.31872 2.31267 8.32382C2.90318 8.32617 3.47241 8.10341 3.90447 7.70087L7.36421 9.26296C7.34017 9.39232 7.32699 9.52343 7.32477 9.65499C7.32069 10.946 8.36395 11.9959 9.65499 12C10.946 12.0041 11.9959 10.9608 12 9.66978C12.0041 8.37874 10.9608 7.32886 9.66978 7.32476C8.89844 7.32233 8.17556 7.70054 7.73777 8.3356L4.48725 6.86789C4.71813 6.31039 4.71902 5.68419 4.48976 5.12603L7.73578 3.65083C8.46671 4.70799 9.91625 4.97242 10.9734 4.24148C12.0306 3.51054 12.295 2.06103 11.564 1.00386C10.8331 -0.0532974 9.38356 -0.317722 8.3264 0.413215C7.69682 0.848524 7.32156 1.56556 7.32275 2.33098C7.32486 2.46272 7.33823 2.59402 7.36271 2.72349L3.91196 4.29155C2.97704 3.41365 1.50746 3.45989 0.62956 4.39481C0.223255 4.82754 -0.0019375 5.39939 0.000262925 5.99297Z" fill="#717171"/>
</g>
<defs>
<clipPath id="clip0_6_38">
<rect width="12" height="12" fill="white"/>
</clipPath>
</defs>
</svg>
