<svg width="35" height="35" viewBox="0 0 35 35" fill="none" xmlns="http://www.w3.org/2000/svg">
<g clip-path="url(#clip0_15_219)">
<path d="M28.1939 21.3892C27.0912 21.3901 26.0054 21.6593 25.03 22.1736C24.0546 22.6878 23.219 23.4316 22.5953 24.3409L13.103 20.0549C13.7772 18.4268 13.7798 16.5982 13.1103 14.9682L22.5895 10.6603C23.5139 11.9972 24.8868 12.9586 26.4593 13.3699C28.0318 13.7813 29.6996 13.6155 31.1603 12.9025C32.6209 12.1895 33.7777 10.9766 34.4207 9.4838C35.0637 7.99101 35.1504 6.31719 34.665 4.76596C34.1796 3.21473 33.1543 1.88885 31.7751 1.02881C30.3959 0.168768 28.7541 -0.168459 27.1476 0.0782961C25.541 0.325051 24.0761 1.13944 23.0186 2.37375C21.961 3.60806 21.3809 5.18052 21.3834 6.80591C21.3896 7.19062 21.4286 7.5741 21.5001 7.95216L11.423 12.5313C10.4552 11.6246 9.24355 11.0203 7.93698 10.7927C6.63041 10.565 5.28581 10.724 4.06836 11.2501C2.85092 11.7762 1.81366 12.6464 1.08401 13.7539C0.354364 14.8614 -0.035888 16.1579 -0.0388019 17.4842C-0.0417159 18.8104 0.342835 20.1086 1.06761 21.2193C1.79238 22.33 2.82581 23.2048 4.04093 23.7363C5.25605 24.2677 6.59994 24.4326 7.9075 24.2107C9.21506 23.9889 10.4293 23.3899 11.4011 22.4874L21.5045 27.049C21.4343 27.4268 21.3958 27.8097 21.3893 28.1938C21.389 29.5401 21.7879 30.8561 22.5357 31.9756C23.2834 33.0951 24.3464 33.9677 25.5901 34.483C26.8338 34.9983 28.2024 35.1332 29.5227 34.8706C30.8431 34.6081 32.056 33.9598 33.0079 33.0079C33.9598 32.056 34.6081 30.8431 34.8706 29.5227C35.1332 28.2023 34.9983 26.8338 34.483 25.5901C33.9677 24.3464 33.0951 23.2834 31.9756 22.5357C30.8562 21.7879 29.5401 21.389 28.1939 21.3892ZM28.1939 2.91654C28.9632 2.91625 29.7153 3.14411 30.3551 3.57131C30.9949 3.9985 31.4936 4.60584 31.7882 5.3165C32.0828 6.02717 32.16 6.80924 32.0101 7.5638C31.8602 8.31836 31.4899 9.01152 30.946 9.5556C30.4021 10.0997 29.7091 10.4703 28.9546 10.6204C28.2001 10.7706 27.418 10.6937 26.7072 10.3994C25.9965 10.105 25.389 9.60652 24.9615 8.96689C24.5341 8.32725 24.3059 7.57522 24.3059 6.80591C24.3067 5.77488 24.7165 4.78627 25.4454 4.05708C26.1744 3.32789 27.1628 2.9177 28.1939 2.91654ZM6.80593 21.3892C6.03663 21.3895 5.28451 21.1617 4.64472 20.7345C4.00492 20.3073 3.50618 19.6999 3.21158 18.9893C2.91698 18.2786 2.83975 17.4965 2.98966 16.742C3.13956 15.9874 3.50988 15.2943 4.05376 14.7502C4.59764 14.2061 5.29065 13.8355 6.04516 13.6853C6.79966 13.5351 7.58176 13.6121 8.29254 13.9064C9.00331 14.2008 9.61084 14.6993 10.0383 15.3389C10.4657 15.9785 10.6939 16.7306 10.6939 17.4999C10.6927 18.5308 10.2827 19.5192 9.55392 20.2483C8.82508 20.9774 7.83685 21.3877 6.80593 21.3892ZM28.1939 32.0832C27.4246 32.0832 26.6726 31.8551 26.033 31.4277C25.3934 31.0004 24.8949 30.3929 24.6005 29.6822C24.3062 28.9715 24.2291 28.1895 24.3792 27.4351C24.5293 26.6806 24.8997 25.9876 25.4436 25.4436C25.9876 24.8997 26.6806 24.5293 27.4351 24.3792C28.1895 24.2291 28.9716 24.3061 29.6823 24.6005C30.3929 24.8949 31.0004 25.3934 31.4277 26.033C31.8551 26.6726 32.0832 27.4246 32.0832 28.1938C32.0825 29.2251 31.6724 30.214 30.9432 30.9432C30.214 31.6724 29.2251 32.0824 28.1939 32.0832Z" fill="white"/>
</g>
<defs>
<clipPath id="clip0_15_219">
<rect width="35" height="35" fill="white"/>
</clipPath>
</defs>
</svg>
