<svg width="23" height="23" viewBox="0 0 23 23" fill="none" xmlns="http://www.w3.org/2000/svg">
<g clip-path="url(#clip0_6_136)">
<path d="M1.91667 5.75C1.40833 5.75 0.920823 5.95194 0.561379 6.31138C0.201934 6.67083 0 7.15834 0 7.66667L0 15.3333C0 15.8417 0.201934 16.3292 0.561379 16.6886C0.920823 17.0481 1.40833 17.25 1.91667 17.25H4.6L11.5 22.978V0.0162964L4.6 5.75H1.91667Z" fill="#717171"/>
<path d="M19.1667 11.5C19.1652 10.2296 18.6598 9.01175 17.7616 8.11347C16.8633 7.21519 15.6454 6.70987 14.375 6.70834H13.4167V8.62501H14.375C15.1375 8.62501 15.8688 8.92791 16.408 9.46708C16.9471 10.0062 17.25 10.7375 17.25 11.5C17.25 12.2625 16.9471 12.9938 16.408 13.5329C15.8688 14.0721 15.1375 14.375 14.375 14.375H13.4167V16.2917H14.375C15.6454 16.2902 16.8633 15.7848 17.7616 14.8865C18.6598 13.9883 19.1652 12.7704 19.1667 11.5Z" fill="#717171"/>
<path d="M14.375 2.875H13.4167V4.79167H14.375C16.1542 4.79167 17.8605 5.49844 19.1185 6.75649C20.3766 8.01455 21.0834 9.72084 21.0834 11.5C21.0834 13.2792 20.3766 14.9855 19.1185 16.2435C17.8605 17.5016 16.1542 18.2083 14.375 18.2083H13.4167V20.125H14.375C16.6625 20.125 18.8563 19.2163 20.4738 17.5988C22.0913 15.9813 23 13.7875 23 11.5C23 9.21251 22.0913 7.0187 20.4738 5.4012C18.8563 3.7837 16.6625 2.875 14.375 2.875Z" fill="#717171"/>
</g>
<defs>
<clipPath id="clip0_6_136">
<rect width="23" height="23" fill="white"/>
</clipPath>
</defs>
</svg>
