<svg width="12" height="12" viewBox="0 0 12 12" fill="none" xmlns="http://www.w3.org/2000/svg">
<g clip-path="url(#clip0_414_1369)">
<path d="M3.88012 3.32537L5.27056 1.93443L5.28106 8.75014C5.28106 9.16433 5.61683 9.50011 6.03103 9.50011C6.44522 9.50011 6.78099 9.16433 6.78099 8.75014L6.77049 1.94294L8.15294 3.32539C8.44069 3.62331 8.91547 3.63156 9.2134 3.34381C9.51132 3.05606 9.51957 2.58128 9.23182 2.28336C9.22577 2.2771 9.21963 2.27096 9.2134 2.26493L7.60746 0.658996C6.72882 -0.219661 5.30426 -0.219661 4.4256 0.658973L4.42558 0.658996L2.81966 2.26491C2.53191 2.56284 2.54016 3.03761 2.83808 3.32537C3.12872 3.60607 3.58948 3.60607 3.88012 3.32537Z" fill="white"/>
<path d="M11.2498 7.25018C10.8356 7.25018 10.4998 7.58596 10.4998 8.00015V10.2955C10.4995 10.4084 10.4081 10.4998 10.2953 10.5H1.70466C1.59184 10.4997 1.50044 10.4084 1.50018 10.2955V8.00015C1.50018 7.58596 1.16441 7.25018 0.750212 7.25018C0.336019 7.25018 0.000244141 7.58596 0.000244141 8.00015V10.2955C0.00134566 11.2364 0.763805 11.9989 1.70466 12H10.2953C11.2362 11.9989 11.9986 11.2364 11.9997 10.2955V8.00015C11.9997 7.58596 11.664 7.25018 11.2498 7.25018Z" fill="white"/>
</g>
<defs>
<clipPath id="clip0_414_1369">
<rect width="12" height="12" fill="white"/>
</clipPath>
</defs>
</svg>
