<svg width="50" height="50" viewBox="0 0 50 50" fill="none" xmlns="http://www.w3.org/2000/svg">
<g clip-path="url(#clip0_656_1244)">
<path d="M25 0C11.2146 0 0 11.2146 0 25C0 38.7854 11.2146 50 25 50C38.7854 50 50 38.7854 50 25C50 11.2146 38.7854 0 25 0ZM16.6667 44.0917V39.5833C16.6667 38.4333 17.6021 37.5 18.75 37.5H31.25C32.3979 37.5 33.3333 38.4333 33.3333 39.5833V44.0917C30.7792 45.2104 27.9625 45.8333 25 45.8333C22.0375 45.8333 19.2208 45.2104 16.6667 44.0917ZM37.5 41.6563V39.5833C37.5 36.1375 34.6958 33.3333 31.25 33.3333H18.75C15.3042 33.3333 12.5 36.1375 12.5 39.5833V41.6563C7.44375 37.8521 4.16667 31.8021 4.16667 25C4.16667 13.5125 13.5125 4.16667 25 4.16667C36.4875 4.16667 45.8333 13.5125 45.8333 25C45.8333 31.8 42.5562 37.8521 37.5 41.6563ZM25 12.5C20.4042 12.5 16.6667 16.2375 16.6667 20.8333C16.6667 25.4292 20.4042 29.1667 25 29.1667C29.5958 29.1667 33.3333 25.4292 33.3333 20.8333C33.3333 16.2375 29.5958 12.5 25 12.5ZM25 25C22.7021 25 20.8333 23.1312 20.8333 20.8333C20.8333 18.5354 22.7021 16.6667 25 16.6667C27.2979 16.6667 29.1667 18.5354 29.1667 20.8333C29.1667 23.1312 27.2979 25 25 25Z" fill="#717171"/>
</g>
<defs>
<clipPath id="clip0_656_1244">
<rect width="50" height="50" fill="white"/>
</clipPath>
</defs>
</svg>
