<svg width="37" height="37" viewBox="0 0 37 37" fill="none" xmlns="http://www.w3.org/2000/svg">
<g clip-path="url(#clip0_264_1129)">
<path d="M32.375 37H29.2917V29.2254C29.2904 28.0167 28.8098 26.8579 27.9551 26.0032C27.1004 25.1486 25.9416 24.6679 24.733 24.6667H12.267C11.0584 24.6679 9.89956 25.1486 9.0449 26.0032C8.19024 26.8579 7.70956 28.0167 7.70833 29.2254V37H4.625V29.2254C4.62745 27.1993 5.43337 25.257 6.86601 23.8243C8.29864 22.3917 10.241 21.5858 12.267 21.5833H24.733C26.759 21.5858 28.7014 22.3917 30.134 23.8243C31.5666 25.257 32.3726 27.1993 32.375 29.2254V37Z" fill="#497174"/>
<path d="M18.5 18.5C16.6705 18.5 14.8821 17.9575 13.361 16.9411C11.8398 15.9247 10.6542 14.48 9.95412 12.7898C9.25401 11.0996 9.07083 9.23974 9.42774 7.44542C9.78465 5.65109 10.6656 4.0029 11.9593 2.70927C13.2529 1.41563 14.9011 0.534654 16.6954 0.17774C18.4897 -0.179173 20.3496 0.0040079 22.0398 0.704118C23.73 1.40423 25.1747 2.58982 26.1911 4.11098C27.2075 5.63213 27.75 7.42053 27.75 9.25C27.7476 11.7025 26.7722 14.0539 25.038 15.788C23.3039 17.5222 20.9525 18.4976 18.5 18.5ZM18.5 3.08334C17.2804 3.08334 16.0881 3.44501 15.074 4.12261C14.0599 4.80021 13.2695 5.76331 12.8027 6.89012C12.336 8.01693 12.2139 9.25684 12.4518 10.4531C12.6898 11.6493 13.2771 12.7481 14.1395 13.6105C15.0019 14.4729 16.1007 15.0602 17.2969 15.2982C18.4932 15.5361 19.7331 15.414 20.8599 14.9473C21.9867 14.4805 22.9498 13.6901 23.6274 12.676C24.305 11.6619 24.6667 10.4697 24.6667 9.25C24.6667 7.6145 24.017 6.04599 22.8605 4.88951C21.704 3.73304 20.1355 3.08334 18.5 3.08334Z" fill="#497174"/>
</g>
<defs>
<clipPath id="clip0_264_1129">
<rect width="37" height="37" fill="white"/>
</clipPath>
</defs>
</svg>
