<svg width="30" height="30" viewBox="0 0 30 30" fill="none" xmlns="http://www.w3.org/2000/svg">
<path d="M22.5 7.50002C22.2656 7.26568 21.9477 7.13403 21.6163 7.13403C21.2848 7.13403 20.9669 7.26568 20.7325 7.50002L15 13.2325L9.26752 7.50002C9.03311 7.26568 8.71522 7.13403 8.38377 7.13403C8.05231 7.13403 7.73443 7.26568 7.50002 7.50002C7.26568 7.73443 7.13403 8.05231 7.13403 8.38377C7.13403 8.71522 7.26568 9.03311 7.50002 9.26752L13.2325 15L7.50002 20.7325C7.26568 20.9669 7.13403 21.2848 7.13403 21.6163C7.13403 21.9477 7.26568 22.2656 7.50002 22.5C7.73443 22.7344 8.05231 22.866 8.38377 22.866C8.71522 22.866 9.03311 22.7344 9.26752 22.5L15 16.7675L20.7325 22.5C20.9669 22.7344 21.2848 22.866 21.6163 22.866C21.9477 22.866 22.2656 22.7344 22.5 22.5C22.7344 22.2656 22.866 21.9477 22.866 21.6163C22.866 21.2848 22.7344 20.9669 22.5 20.7325L16.7675 15L22.5 9.26752C22.7344 9.03311 22.866 8.71522 22.866 8.38377C22.866 8.05231 22.7344 7.73443 22.5 7.50002Z" fill="#3C3C3C"/>
</svg>
