<svg width="20" height="20" viewBox="0 0 20 20" fill="none" xmlns="http://www.w3.org/2000/svg">
<rect width="20" height="20" rx="10" fill="white"/>
<path d="M14.5 5.5C14.3593 5.3594 14.1686 5.28041 13.9697 5.28041C13.7709 5.28041 13.5801 5.3594 13.4395 5.5L9.99999 8.9395L6.56049 5.5C6.41984 5.3594 6.22911 5.28041 6.03024 5.28041C5.83136 5.28041 5.64063 5.3594 5.49999 5.5C5.35938 5.64065 5.2804 5.83138 5.2804 6.03025C5.2804 6.22912 5.35938 6.41985 5.49999 6.5605L8.93949 10L5.49999 13.4395C5.35938 13.5801 5.2804 13.7709 5.2804 13.9698C5.2804 14.1686 5.35938 14.3594 5.49999 14.5C5.64063 14.6406 5.83136 14.7196 6.03024 14.7196C6.22911 14.7196 6.41984 14.6406 6.56049 14.5L9.99999 11.0605L13.4395 14.5C13.5801 14.6406 13.7709 14.7196 13.9697 14.7196C14.1686 14.7196 14.3593 14.6406 14.5 14.5C14.6406 14.3594 14.7196 14.1686 14.7196 13.9698C14.7196 13.7709 14.6406 13.5801 14.5 13.4395L11.0605 10L14.5 6.5605C14.6406 6.41985 14.7196 6.22912 14.7196 6.03025C14.7196 5.83138 14.6406 5.64065 14.5 5.5Z" fill="#3C3C3C"/>
</svg>
